PathFileType	4	(X/Y/Z)	/Users/niels/Desktop/University/Third Semester/Perception and Action/Exam/Gymnastics Motion Tracking/Code for Gym Tracking/Analyzed Data/Webcam_Backflip/id2_2_trajectory_Sports2D/id2_2_trajectory_Sports2D_px_person00.trc
DataRate	CameraRate	NumFrames	NumMarkers	Units	OrigDataRate	OrigDataStartFrame	OrigNumFrames
29.928400954653938	29.928400954653938	10	22	m	29.928400954653938	366	419
Frame#	Time	Hip			RHip			RKnee			RAnkle			RBigToe			RSmallToe			RHeel			LHip			LKnee			LAnkle			LBigToe			LSmallToe			LHeel			Neck			Head			Nose			RShoulder			RElbow			RWrist			LShoulder			LElbow			LWrist		
		X1	Y1	Z1	X2	Y2	Z2	X3	Y3	Z3	X4	Y4	Z4	X5	Y5	Z5	X6	Y6	Z6	X7	Y7	Z7	X8	Y8	Z8	X9	Y9	Z9	X10	Y10	Z10	X11	Y11	Z11	X12	Y12	Z12	X13	Y13	Z13	X14	Y14	Z14	X15	Y15	Z15	X16	Y16	Z16	X17	Y17	Z17	X18	Y18	Z18	X19	Y19	Z19	X20	Y20	Z20	X21	Y21	Z21	X22	Y22	Z22
366	12.229186602870813	0.8742450889083104	-0.4368870004918821	0.0	0.869984393990527	-0.4280858618720039	0.0	0.8791213647075818	-0.681951695641316	0.0	0.8293133360163908	-0.902957582144961	0.0	0.913552025260364	-0.9556929081846234	0.0	0.8912168750421551	-0.965997356185876	0.0	0.8045718216885676	-0.9309403304753193	0.0	0.8853343184844674	-0.42745126836930475	0.0	0.8774259417247273	-0.6701396758799105	0.0	0.8356217486342805	-0.8762961660368154	0.0	0.922102962639024	-0.9241022212928511	0.0	0.9088357542328955	-0.9147722359840184	0.0	0.8047717760408132	-0.901734766952754	0.0	0.8584216025526907	-0.11951101049033745	0.0	0.9056276495568152	-0.019257063316645492	0.0	0.9168681094697302	-0.07787324353010305	0.0	0.8270461074144069	-0.1345411919997107	0.0	0.9561120456790989	-0.027922579447390943	0.0	1.0063036717874154	0.014614362323656377	0.0	0.8336970003506396	-0.15504676021398683	0.0	0.9461736745213468	-0.1269753168360691	0.0	0.9975613041523628	-0.0305833761172901	0.0
367	12.262599681020733	0.8692933224677026	-0.434811924230655	0.0	0.8645161306026617	-0.42542569364645655	0.0	0.8754766395794018	-0.6812203604476763	0.0	0.8289473873288176	-0.9027913416786826	0.0	0.9120879721953009	-0.9576283642707463	0.0	0.8898118432151454	-0.968221078768386	0.0	0.8053076322607268	-0.9310508185388863	0.0	0.875944086479887	-0.42473938488978186	0.0	0.8724674247266304	-0.668224698537695	0.0	0.834640638280908	-0.8735549364706818	0.0	0.9189598868063993	-0.921265830924276	0.0	0.9056718459779031	-0.912377354716232	0.0	0.8057962825102313	-0.9023799461626909	0.0	0.8560331607122725	-0.11685653371916196	0.0	0.9037171125991182	-0.013807994330039272	0.0	0.9160289503553776	-0.07303450659303312	0.0	0.8226048178156589	-0.1320265093863465	0.0	0.959805559689646	-0.036371805355019673	0.0	1.0247831781386456	0.01388234045671169	0.0	0.8315137740175624	-0.15299567777575093	0.0	0.9575087842788869	-0.12441121322846069	0.0	1.027365609352381	-0.03209507100787855	0.0
368	12.296012759170655	0.864174950667609	-0.433903002608259	0.0	0.8588013353437898	-0.4246741374152839	0.0	0.8711245455788384	-0.6817519321526382	0.0	0.8276835683694279	-0.9037517286241618	0.0	0.9106512729925688	-0.9587451663714279	0.0	0.8884909673984955	-0.969962400816295	0.0	0.8050839298738255	-0.9325375823172335	0.0	0.8674834715015622	-0.4241275811051158	0.0	0.8676564655119482	-0.6677479643510112	0.0	0.8332252840406523	-0.8713502659201959	0.0	0.9159052512720212	-0.9175739277730179	0.0	0.9033505625034177	-0.9091439959062788	0.0	0.8063417336039794	-0.9033794349652869	0.0	0.8537258937081366	-0.11520174517760338	0.0	0.9052573471950153	-0.007738725045190656	0.0	0.9166861210573046	-0.06956758793309746	0.0	0.8189606512787881	-0.13075965051860933	0.0	0.9624585876862111	-0.04880205846548319	0.0	1.0443169586701748	0.006633777199686486	0.0	0.8344739728160877	-0.15193658958898432	0.0	0.9691921145440755	-0.1300994358427819	0.0	1.0568767926194722	-0.043677079469582276	0.0
369	12.329425837320574	0.8594001684203426	-0.4341941216144419	0.0	0.8533550544244364	-0.42608204814957384	0.0	0.8660172471705814	-0.6835426075706591	0.0	0.8257315605694107	-0.9058279840652114	0.0	0.9095424237634037	-0.958872424142666	0.0	0.8874321446673249	-0.9710107633493217	0.0	0.8040075220252109	-0.9352754961908554	0.0	0.8614421925163848	-0.42570941608931107	0.0	0.8629556261747678	-0.6688970172385416	0.0	0.8314944003493876	-0.8700031119307874	0.0	0.9132303835905226	-0.9135950271424168	0.0	0.9018250800692975	-0.9055333984897185	0.0	0.8066794075482981	-0.9044476664434539	0.0	0.8516228221025867	-0.11480669525540138	0.0	0.9085790721076861	-0.0016514270987537665	0.0	0.9179325650796811	-0.06797269181789715	0.0	0.8163155989686839	-0.13132152206831674	0.0	0.9654697939089871	-0.06583621721184886	0.0	1.0648115874262418	-0.008784792694765748	0.0	0.8412040256050435	-0.15213830216665553	0.0	0.9803775665479356	-0.1421444868170245	0.0	1.082799355888523	-0.06536239901328589	0.0
370	12.362838915470494	0.8551734531970433	-0.4355334593758954	0.0	0.8484846202666335	-0.4292291904619352	0.0	0.8602465972821207	-0.6861426416015407	0.0	0.8233611859471303	-0.9086824967514897	0.0	0.9089888107669137	-0.9584236901474954	0.0	0.8868300451211668	-0.9715920984935137	0.0	0.8023083391271225	-0.938894784168535	0.0	0.857797148322313	-0.4288570953229607	0.0	0.8582877597788873	-0.6713371108109419	0.0	0.8294994367791213	-0.8697602151249001	0.0	0.9111340038611171	-0.910394482435415	0.0	0.9009100882749532	-0.902514988426408	0.0	0.8068082502751938	-0.9055638484219541	0.0	0.8501495818139679	-0.11549888961901351	0.0	0.9120393584231413	0.003870771116421773	0.0	0.9191420978038591	-0.06823104560044034	0.0	0.8150091582088345	-0.13372005814660018	0.0	0.9691888981461979	-0.08787330996227287	0.0	1.0852123325772847	-0.03392946776634058	0.0	0.8486635453625334	-0.15346952271271533	0.0	0.9887677081352674	-0.15901444852612756	0.0	1.1020062878572143	-0.09553235175711144	0.0
371	12.396251993620416	0.8513447215518981	-0.4376671087530414	0.0	0.8441999096007219	-0.4332995441818863	0.0	0.854066135990599	-0.6888021321311694	0.0	0.8207653679218186	-0.9117491584018173	0.0	0.9089549947192322	-0.9580531047573608	0.0	0.8866758967327951	-0.972035163657103	0.0	0.8002545012444409	-0.9427951726498316	0.0	0.855734194393895	-0.4326578572703099	0.0	0.8536727848631719	-0.674359809421948	0.0	0.8272475834875581	-0.870665679377829	0.0	0.9095891172478924	-0.9088699970824594	0.0	0.9002792634711462	-0.9008652669628389	0.0	0.8063185924392875	-0.9068442234340534	0.0	0.8498521594016195	-0.11693362344980543	0.0	0.9148631484148284	0.008187464031311773	0.0	0.9200699104415088	-0.0699552292790309	0.0	0.8153453507168659	-0.1374840733250369	0.0	0.9724241659447175	-0.11479141012628137	0.0	1.1031997605283619	-0.0699154918924836	0.0	0.8541462393917106	-0.15556326102065562	0.0	0.9918047252131966	-0.17969172254994437	0.0	1.1122113447329958	-0.13206980248875605	0.0
372	12.429665071770335	0.8476485505814211	-0.4402540504467225	0.0	0.8402869507314001	-0.43742613116402085	0.0	0.8477372650030098	-0.6908512824064094	0.0	0.8180593511029302	-0.9145271226337275	0.0	0.9092264585294498	-0.9581963144157538	0.0	0.8868590769667822	-0.9724575769710917	0.0	0.7980668371156439	-0.9463601354925015	0.0	0.854478535598748	-0.4364695504523338	0.0	0.8493602726409716	-0.6772471711979562	0.0	0.824916570443326	-0.8725966855268754	0.0	0.9086152923402278	-0.9092872641957558	0.0	0.8996615036504061	-0.9007328003547046	0.0	0.8048838964370918	-0.9083588670283532	0.0	0.8511707362740679	-0.1187952456946482	0.0	0.9171618996340019	0.010807878523078775	0.0	0.920766476878136	-0.07243044616566925	0.0	0.8173589209775239	-0.14184737218269766	0.0	0.9732428533357426	-0.14556272709313187	0.0	1.1156240835371467	-0.11630239860210165	0.0	0.8576844720116996	-0.15808094932903358	0.0	0.9885703747741215	-0.2030411336709565	0.0	1.1130018274396953	-0.1730237575220357	0.0
373	12.463078149920255	0.8439009765629393	-0.44294227682041	0.0	0.8365207212353192	-0.4409875591550863	0.0	0.8414351958125633	-0.6920580826549326	0.0	0.8153852858785031	-0.9168384724918897	0.0	0.9096211280165116	-0.9589532825751347	0.0	0.8873512280871028	-0.972827135535912	0.0	0.7959090084390786	-0.9492356648171248	0.0	0.853544678970676	-0.4401294340674978	0.0	0.8457183781239022	-0.6795623367670294	0.0	0.8228970378919527	-0.8752731865439483	0.0	0.9084197198626253	-0.9113006775503856	0.0	0.898985924364281	-0.9017730266888401	0.0	0.8027169049852163	-0.9100169852245115	0.0	0.8543244561580712	-0.12087623712983651	0.0	0.919470306321883	0.01166145674958423	0.0	0.9215721540549727	-0.07482858103954342	0.0	0.820809360458278	-0.1461001053414546	0.0	0.9702806012491519	-0.17821339540473297	0.0	1.1195967968235863	-0.17041526916389765	0.0	0.8615788319997932	-0.1608665580035698	0.0	0.9806191919822854	-0.22755989130160814	0.0	1.1062529196098871	-0.21671551184831636	0.0
374	12.496491228070175	0.8400107094228743	-0.4455612588841571	0.0	0.8327806141063732	-0.4438125263009635	0.0	0.835349410144116	-0.6926239980297177	0.0	0.8129936343775651	-0.9187946541500908	0.0	0.910051939203627	-0.9601889016170042	0.0	0.8881361238781053	-0.9731338147040501	0.0	0.7939129081208175	-0.951331779982626	0.0	0.8525993700527721	-0.44377030986286575	0.0	0.8429013714642636	-0.6811635184205984	0.0	0.821465211428187	-0.8781964752679167	0.0	0.9090392691800243	-0.9140630968718754	0.0	0.8982769617302471	-0.9034172953465283	0.0	0.8003099556934422	-0.911547879291642	0.0	0.8592355726041596	-0.12315113420205302	0.0	0.9222972327499178	0.011064925940140207	0.0	0.9229954715092745	-0.07668104933949763	0.0	0.8253842815272633	-0.14997570724748646	0.0	0.9635616038738793	-0.2105229198783281	0.0	1.1139578877716774	-0.22801089693485518	0.0	0.8676569302226798	-0.1639403749592206	0.0	0.9707991021727834	-0.2517127431536127	0.0	1.0949408222159265	-0.2614940776106835	0.0
375	12.529904306220097	0.8360039187037474	-0.4482228494758166	0.0	0.8290332958060143	-0.4461859900921596	0.0	0.8297936543236079	-0.6928721312720493	0.0	0.811174373135123	-0.9205218241004466	0.0	0.9104540283096804	-0.9616136974461367	0.0	0.8890561779098458	-0.9733951635910953	0.0	0.7921693449957632	-0.9526522102103299	0.0	0.8513441593281159	-0.44755301112043044	0.0	0.8406882532829233	-0.6821438024523578	0.0	0.8204985543058498	-0.8808734713842074	0.0	0.910074120353859	-0.9166064840444043	0.0	0.897628997388214	-0.9051576516993383	0.0	0.7978979480600831	-0.9126983633510958	0.0	0.8655017323429338	-0.12573229940453137	0.0	0.925910192130039	0.009454420076566867	0.0	0.9254715469398979	-0.07810813210548427	0.0	0.8307997887071406	-0.1536993752599003	0.0	0.9544114260266586	-0.240885799831621	0.0	1.1000048150349817	-0.28462477464263114	0.0	0.8759261718232	-0.16733224776328087	0.0	0.9614847553232365	-0.2740655263528986	0.0	1.0811144983266796	-0.30549622487646355	0.0
